<?xml version="1.0" encoding="UTF-8" standalone="no"?>
<svg
   xmlns:dc="http://purl.org/dc/elements/1.1/"
   xmlns:cc="http://creativecommons.org/ns#"
   xmlns:rdf="http://www.w3.org/1999/02/22-rdf-syntax-ns#"
   xmlns:svg="http://www.w3.org/2000/svg"
   xmlns="http://www.w3.org/2000/svg"
   xmlns:sodipodi="http://sodipodi.sourceforge.net/DTD/sodipodi-0.dtd"
   xmlns:inkscape="http://www.inkscape.org/namespaces/inkscape"
   width="189.5226mm"
   height="82.199295mm"
   viewBox="0 0 189.5226 82.199295"
   version="1.1"
   id="svg4420"
   inkscape:version="1.0.1 (3bc2e813f5, 2020-09-07)"
   sodipodi:docname="logo.svg">
  <defs
     id="defs4414" />
  <sodipodi:namedview
     id="base"
     pagecolor="#ffffff"
     bordercolor="#666666"
     borderopacity="1.0"
     inkscape:pageopacity="0.0"
     inkscape:pageshadow="2"
     inkscape:zoom="0.35"
     inkscape:cx="361.30256"
     inkscape:cy="154.07743"
     inkscape:document-units="mm"
     inkscape:current-layer="layer1"
     inkscape:document-rotation="0"
     showgrid="false"
     inkscape:window-width="1920"
     inkscape:window-height="1052"
     inkscape:window-x="0"
     inkscape:window-y="0"
     inkscape:window-maximized="1"
     fit-margin-top="0"
     fit-margin-left="0"
     fit-margin-right="0"
     fit-margin-bottom="0" />
  <metadata
     id="metadata4417">
    <rdf:RDF>
      <cc:Work
         rdf:about="">
        <dc:format>image/svg+xml</dc:format>
        <dc:type
           rdf:resource="http://purl.org/dc/dcmitype/StillImage" />
        <dc:title></dc:title>
      </cc:Work>
    </rdf:RDF>
  </metadata>
  <g
     inkscape:label="Calque 1"
     inkscape:groupmode="layer"
     id="layer1"
     transform="translate(-10.238698,-107.40035)">
    <g
       id="g3798"
       transform="matrix(0,-2.2296777,2.2296777,0,-6.483885,259.98611)">
      <g
         id="g3736">
        <path
           fill="#000000"
           d="m 52.56,85.331 h -5.12 c -0.283,0 -0.512,-0.229 -0.512,-0.512 V 64.337 c 0,-0.283 0.229,-0.512 0.512,-0.512 0.283,0 0.512,0.229 0.512,0.512 v 19.97 h 4.096 v -19.97 c 0,-0.283 0.229,-0.512 0.512,-0.512 0.283,0 0.512,0.229 0.512,0.512 v 20.482 c 0,0.283 -0.229,0.512 -0.512,0.512 z"
           id="path3734" />
      </g>
      <g
         id="g3740">
        <path
           fill="#000000"
           d="m 47.44,69.97 c -0.22,0 -0.424,-0.143 -0.49,-0.365 -0.081,-0.271 0.073,-0.556 0.344,-0.638 l 5.12,-1.536 c 0.271,-0.081 0.556,0.073 0.638,0.344 0.081,0.271 -0.073,0.556 -0.344,0.638 l -5.12,1.536 c -0.05,0.014 -0.1,0.021 -0.148,0.021 z"
           id="path3738" />
      </g>
      <g
         id="g3744">
        <path
           fill="#000000"
           d="m 47.44,73.042 c -0.22,0 -0.424,-0.143 -0.49,-0.365 -0.081,-0.271 0.073,-0.556 0.344,-0.638 l 5.12,-1.536 c 0.271,-0.081 0.556,0.073 0.638,0.344 0.081,0.271 -0.073,0.556 -0.344,0.638 l -5.12,1.536 c -0.05,0.014 -0.1,0.021 -0.148,0.021 z"
           id="path3742" />
      </g>
      <g
         id="g3748">
        <path
           fill="#000000"
           d="m 47.44,76.114 c -0.22,0 -0.424,-0.143 -0.49,-0.365 -0.081,-0.271 0.073,-0.556 0.344,-0.638 l 5.12,-1.536 c 0.271,-0.081 0.556,0.073 0.638,0.344 0.081,0.271 -0.073,0.556 -0.344,0.638 l -5.12,1.536 c -0.05,0.014 -0.1,0.021 -0.148,0.021 z"
           id="path3746" />
      </g>
      <g
         id="g3752">
        <path
           fill="#000000"
           d="m 47.44,79.187 c -0.22,0 -0.424,-0.143 -0.49,-0.365 -0.081,-0.271 0.073,-0.556 0.344,-0.638 l 5.12,-1.536 c 0.271,-0.081 0.556,0.073 0.638,0.344 0.081,0.271 -0.073,0.556 -0.344,0.638 l -5.12,1.536 c -0.05,0.014 -0.1,0.021 -0.148,0.021 z"
           id="path3750" />
      </g>
      <g
         id="g3756">
        <path
           fill="#000000"
           d="m 47.44,82.259 c -0.22,0 -0.424,-0.143 -0.49,-0.365 -0.081,-0.271 0.073,-0.556 0.344,-0.638 l 5.12,-1.536 c 0.271,-0.081 0.556,0.073 0.638,0.344 0.081,0.271 -0.073,0.556 -0.344,0.638 l -5.12,1.536 c -0.05,0.014 -0.1,0.021 -0.148,0.021 z"
           id="path3754" />
      </g>
      <g
         id="g3760">
        <path
           fill="#000000"
           d="m 47.44,85.331 c -0.22,0 -0.424,-0.143 -0.49,-0.365 -0.081,-0.271 0.073,-0.556 0.344,-0.638 l 5.12,-1.536 c 0.271,-0.081 0.556,0.073 0.638,0.344 0.081,0.271 -0.073,0.556 -0.344,0.638 l -5.12,1.536 c -0.05,0.014 -0.1,0.021 -0.148,0.021 z"
           id="path3758" />
      </g>
      <g
         id="g3764">
        <path
           fill="#000000"
           d="m 52.048,92.5 h -4.096 c -0.136,0 -0.266,-0.054 -0.362,-0.15 l -1.536,-1.536 c -0.096,-0.096 -0.15,-0.226 -0.15,-0.362 v -5.633 c 0,-0.283 0.229,-0.512 0.512,-0.512 h 7.169 c 0.283,0 0.512,0.229 0.512,0.512 v 5.633 c 0,0.136 -0.054,0.266 -0.15,0.362 L 52.41,92.35 c -0.096,0.096 -0.226,0.15 -0.362,0.15 z m -3.884,-1.024 h 3.672 l 1.236,-1.236 v -4.908 h -6.145 v 4.908 z"
           id="path3762" />
      </g>
      <g
         id="g3768">
        <path
           fill="#000000"
           d="m 51.024,89.94 h -2.048 c -0.283,0 -0.512,-0.229 -0.512,-0.512 0,-0.283 0.229,-0.512 0.512,-0.512 h 2.048 c 0.283,0 0.512,0.229 0.512,0.512 0,0.283 -0.229,0.512 -0.512,0.512 z"
           id="path3766" />
      </g>
      <g
         id="g3772">
        <path
           fill="#000000"
           d="m 51.024,87.892 h -2.048 c -0.283,0 -0.512,-0.229 -0.512,-0.512 0,-0.283 0.229,-0.512 0.512,-0.512 h 2.048 c 0.283,0 0.512,0.229 0.512,0.512 0,0.283 -0.229,0.512 -0.512,0.512 z"
           id="path3770" />
      </g>
      <g
         id="g3776">
        <path
           fill="#000000"
           d="m 53.584,64.849 h -7.169 c -0.283,0 -0.512,-0.229 -0.512,-0.512 v -1.536 c 0,-0.283 0.229,-0.512 0.512,-0.512 h 7.169 c 0.283,0 0.512,0.229 0.512,0.512 v 1.536 c 0,0.283 -0.229,0.512 -0.512,0.512 z m -6.656,-1.024 h 6.145 v -0.512 h -6.145 z"
           id="path3774" />
      </g>
      <g
         id="g3780">
        <path
           fill="#000000"
           d="m 53.584,10.06 h -7.169 c -0.283,0 -0.512,-0.229 -0.512,-0.512 V 8.012 c 0,-0.283 0.229,-0.512 0.512,-0.512 h 7.169 c 0.283,0 0.512,0.229 0.512,0.512 v 1.536 c 0,0.283 -0.229,0.512 -0.512,0.512 z M 46.928,9.036 h 6.145 V 8.524 h -6.145 z"
           id="path3778" />
      </g>
      <g
         id="g3784">
        <path
           fill="#000000"
           d="M 60.241,23.373 H 39.759 c -0.283,0 -0.512,-0.229 -0.512,-0.512 V 15.18 c 0,-0.283 0.229,-0.512 0.512,-0.512 h 20.482 c 0.283,0 0.512,0.229 0.512,0.512 v 7.681 c 0,0.283 -0.229,0.512 -0.512,0.512 z M 40.271,22.349 H 59.729 V 15.692 H 40.271 Z"
           id="path3782" />
      </g>
      <g
         id="g3788">
        <path
           fill="#000000"
           d="m 53.584,30.542 h -7.169 c -0.283,0 -0.512,-0.229 -0.512,-0.512 v -1.536 c 0,-0.283 0.229,-0.512 0.512,-0.512 h 7.169 c 0.283,0 0.512,0.229 0.512,0.512 v 1.536 c 0,0.283 -0.229,0.512 -0.512,0.512 z m -6.656,-1.024 h 6.145 v -0.512 h -6.145 z"
           id="path3786" />
      </g>
      <g
         id="g3792">
        <path
           fill="#000000"
           d="m 52.56,63.313 h -5.12 c -0.283,0 -0.512,-0.229 -0.512,-0.512 V 30.03 c 0,-0.283 0.229,-0.512 0.512,-0.512 h 5.12 c 0.283,0 0.512,0.229 0.512,0.512 v 32.771 c 0,0.283 -0.229,0.512 -0.512,0.512 z m -4.608,-1.024 h 4.096 V 30.542 h -4.096 z"
           id="path3790" />
      </g>
      <g
         id="g3796">
        <path
           fill="#000000"
           d="m 67.922,30.03 h -5.12 c -0.136,0 -0.266,-0.054 -0.362,-0.15 l -0.874,-0.874 h -23.13 l -0.874,0.874 c -0.096,0.096 -0.226,0.15 -0.362,0.15 h -5.12 c -0.283,0 -0.512,-0.229 -0.512,-0.512 V 8.524 c 0,-0.283 0.229,-0.512 0.512,-0.512 h 5.12 c 0.136,0 0.266,0.054 0.362,0.15 l 0.874,0.874 h 23.13 L 62.44,8.162 c 0.096,-0.096 0.226,-0.15 0.362,-0.15 h 5.12 c 0.283,0 0.512,0.229 0.512,0.512 v 20.994 c 0,0.283 -0.229,0.512 -0.512,0.512 z m -4.909,-1.024 h 4.396 V 9.036 H 63.013 L 62.139,9.91 c -0.096,0.096 -0.226,0.15 -0.362,0.15 H 38.223 c -0.136,0 -0.266,-0.054 -0.362,-0.15 L 36.987,9.036 H 32.59 v 19.97 h 4.396 l 0.874,-0.874 c 0.096,-0.096 0.226,-0.15 0.362,-0.15 h 23.554 c 0.136,0 0.266,0.054 0.362,0.15 z"
           id="path3794" />
      </g>
    </g>
  </g>
</svg>
